<svg xmlns="http://www.w3.org/2000/svg" viewBox="0 0 138 144"><path fill="#9FD6CF" d="m131.6 61.5-.5-3.7a65.3 65.3 0 0 0-21-37A64.2 64.2 0 0 0 64.3 5.2 62.8 62.8 0 0 0 5.7 62.6a64 64 0 0 0 52.5 67.9 49 49 0 0 0 30.9-2.3c3.2-1.3-10.6 3.6-26.1.5a71.6 71.6 0 0 1-18.9-7.8c-14-7.6-18.7-18-24-29.6-2-4.3-2.5-9.2-2.6-14A56 56 0 0 1 31 38.2c3.7-3.7 5.6-6.1 9-8.6A68 68 0 0 1 68.2 19a51.8 51.8 0 0 1 28.6 5.3 69.6 69.6 0 0 1 11.8 6c5.1 4.3 11.4 12 13.4 14.8.9 1.2 3.4 5.7 4.7 8.7 1 2.4 2 4.9 2.3 7.4.4 2.8.6 7 .6 10.4 0 6.2-1.9 20.1-1.3 18.5a61.6 61.6 0 0 0 3.3-28.6"/><path fill="#9F93E7" d="M62.3 40.6c4-2.5 8.4-2.5 12.1-2.6 8.9-.3 15.2.7 21.3.6 4 0 8.1-.2 12.5-3.4l-3.5 7c-1 1.8-5 6.4-13 7.4-8.2 1.1-21-1.6-28.6-.1-5 1-5.1 3-7.2 4.3-1.3.7-2 1.7-3.6 2.1 0 0 1.2-3.7 2-5.6a27.2 27.2 0 0 1 2.8-5.1 20.2 20.2 0 0 1 5.2-4.6m-1.6 19.2c1-.7 2-1.2 3.1-1.6 1.4-.5 2.8-.6 4.3-.8 2.3-.2 7 0 7 0s9 1 13.6 1.1c2.4 0 5 .3 7.4-.3 1.6-.3 4.6-1.9 4.6-1.9L96 65c-1.7 3.3-5.9 4-10.5 4.3-5.8.3-13-.8-17.3 1.6-7 3.8-8.9 14.8-10.8 21.7l-.5 2.3-1.7 6-1.1 3-1.5 3a9 9 0 0 1-4 3.7l-2.5.9c-1.3.3-2.7.5-4 .6-2.7.2-8.3-.2-8.3-.2s2.5-.9 3.3-1.5c1-.5 1.4-1.2 2-1.9 1.7-2 2.3-2.4 4.5-6.7s6.3-19.6 6.3-19.6l3.3-9.4s2.5-6.3 4.3-9.1c1-1.4 2-2.8 3.2-3.8Z"/><path fill="#9FD6CF" d="M65.6 117.4c1.8-2.2 6.3-3.4 9.8-4 5.3-1 12 .7 16.3 0l5.2-.7s-6.2 9-10.7 12c-3.4 2.5-11.7 4.9-11.7 4.9s6 2.2 8 4.3c2 2 3.9 7.3 3.9 7.3s-5.5-1.3-8.2-1.6c-3.2-.5-7.9 1-9.7-.6-2.2-1.7-3.7-4-4.7-6.5 0 0 4-.1 6 .2 2.2.4 6.4 2.3 6.4 2.2 0 0-3.6-2.3-5.6-2.9-2.3-.7-4.9-.4-7.2-.8-.8-.2-1.3-2.6-.6-2.5 3.9.7 6.4-1.5 9.5-2.6a80 80 0 0 0 10.3-5c0-.2-7.4 3-11.3 4-2.8.7-6.8 1.7-6.8 1.5 0-3.4-1-6.7 1-9.2Zm49.4-6.5c4.5 0 8.2-3.7 8.2-8.2a8.2 8.2 0 1 0-8.2 8.2M79.1 34c3 0 5.5-2.5 5.5-5.5a5.4 5.4 0 1 0-5.5 5.4ZM34.5 76.4c4.5 0 8.2-3.7 8.2-8.2a8.2 8.2 0 1 0-8.2 8.2"/><path fill="#F8FBFB" d="M36.4 66.2c1.1 0 2-1 2-2s-.9-2-2-2c-1 0-2 1-2 2s1 2 2 2m.4 3.2c.3-.8 0-2 .8-2.4.8-.5 2.2-.5 2.8.3 1 1.7-.3 4.3-1.6 5.8-.6.7-1.5 1-2.3 1s-2-.6-2.1-1.4c-.1-.7 0-1.2 1.2-1.5.3-.1.5-.4.7-.7zm80.4 31.4c1 0 2-.9 2-2 0-1-1-1.9-2-1.9a2 2 0 0 0-2 2c0 1 .9 2 2 2Zm.4 3.2c.3-.7 0-1.9.7-2.3.8-.6 2.3-.5 2.8.3 1.2 1.6-.2 4.3-1.5 5.8-.6.6-1.5 1-2.3 1-.9-.1-2-.6-2.1-1.5-.1-.6 0-1.2 1.2-1.5.3 0 .4-.4.6-.7.3-.3.4-.7.6-1ZM80.9 26.8c.6 0 1-.5 1-1 0-.6-.4-1-1-1-.7 0-1.2.4-1.2 1 0 .5.5 1 1.2 1m.1 1.6c.2-.4.1-1 .5-1.2.4-.3 1.3-.2 1.6.2.6.8-.2 2.2-1 3-.2.3-.7.5-1.2.5s-1.1-.3-1.2-.8c0-.3 0-.6.7-.8.2 0 .3-.2.4-.3l.3-.6Z"/></svg>